<svg xmlns="http://www.w3.org/2000/svg" width="1144" height="1144"><path d="M572.107 1143.489c-320.02 0-571.49-251.469-571.49-571.49S252.087.509 572.107.509c320.021 0 571.49 251.469 571.49 571.49s-251.469 571.49-571.49 571.49Zm0-1034.107c-245.526 0-462.618 194.218-462.618 462.617 0 237.048 192.324 462.617 462.618 462.617 272.568 0 462.617-217.751 462.617-462.617 0-261.76-201.634-462.617-462.617-462.617Zm0 754.363c-160.012 0-291.744-131.734-291.744-291.746 0-160.012 131.732-291.745 291.744-291.745 160.011 0 291.746 131.733 291.746 291.745S732.118 863.745 572.107 863.745Z"/></svg>